<?xml version="1.0" encoding="utf-8"?>
<!-- Generator: Adobe Illustrator 20.1.0, SVG Export Plug-In . SVG Version: 6.00 Build 0)  -->
<svg version="1.1" id="Layer_1" xmlns="http://www.w3.org/2000/svg" xmlns:xlink="http://www.w3.org/1999/xlink" x="0px" y="0px"
	 viewBox="0 0 414 95" style="enable-background:new 0 0 414 95;" xml:space="preserve">
<style type="text/css">
	.st0{enable-background:new    ;}
	.st1{fill:#39B54A;}
	.st2{fill:#78BEF9;}
</style>
<title>Spring Escape</title>
<g class="st0">
	<path class="st1" d="M211.3,48c2.8,0.7,4.1,2.2,4.1,3.5c0,5.6-9.8,6.5-13.8,6.5c-1.1,0-4.5,0-4.5-1.6c0-0.6,1-2.1,1.4-2.5
		c0.3-0.3,2-0.8,2.4-0.8c0.1,0,0.2,0,0.2,0.2c0,0.3-0.3,0.4-0.5,0.5s-0.3,0.3-0.5,0.4v0.1c10,0.4,12.7-2.5,12.7-3
		c0-1.4-7.8-2.5-9.1-2.8c-1.4-0.2-2.9-0.7-2.9-2.4c0-0.9,0.4-3,0.9-3.7c0.9-1.4,5.9-4.1,12.1-4.1c1.2,0,2.4,0.1,3.5,0.4
		c0.6,0.1,0.7,0.4,0.7,0.9c0,2.1-0.7,2.5-2.4,3.2c-1.2,0.4-1.4,0.6-2.5,1.4c-0.2,0.1-0.5,0.3-0.7,0.3c-0.3,0-0.4-0.1-0.4-0.4
		c0-0.1,0.5-0.9,2-2l-0.1-0.1c-7.2,0.3-10.3,2.9-10.4,3.5C203.8,46,203.5,46.2,211.3,48z"/>
	<path class="st1" d="M216.1,62.2c-0.2,0.4-0.7,1.2-1.3,1.2S214,62.5,214,62c0-1.4,0.6-2.8,1.7-4.4c1.3-1.8,2.7-4.1,4.5-7.2
		l-0.1-0.1l-4.4,4.2l-0.1-1.3l7.4-8c0.7-0.7,1.2-1.5,2.2-1.5c0.4,0,1.3,0.1,1.3,0.7c0,0.6-1.5,2-1.9,2.4c-1,1-1.8,2-2.4,3.3l0.2,0.1
		c1.2-0.9,4-2.7,5.5-2.7c0.8,0,1.2,0.6,1.2,1.3c0,1.5-1.4,3.5-4.5,6.2c2.4,0.2,3-0.3,6-2.9l0.2,1.3c-2.1,2-4.6,4-7.6,4
		c-0.8,0-1.3-0.2-2-0.6c-0.4,0.1-0.8,0.2-1.3,0.2c-0.4,0-0.8-0.1-1.1-0.2L216.1,62.2z M225,52.3c0.3-0.4,0.7-0.9,0.7-1.4
		c0-0.2-0.1-0.4-0.3-0.4c-0.4,0-1.8,0.9-2.2,1.1c-1,0.8-1.8,1.7-2.6,2.7c0.8-0.1,1.6,0,2.4,0.3L225,52.3z"/>
	<path class="st1" d="M232.5,51.5c-1,1.5-2.2,2.3-3.4,3.5l-0.1-1.2c0.7-0.6,1.3-1.3,1.8-2c-0.6-0.1-0.8-0.3-0.8-0.9c0-2,2.9-4,3.5-4
		c0.3,0,0.5,0.2,0.5,0.5s-0.1,0.5-0.2,0.8c2.6-0.4,4.2-0.7,4.5-0.4c0.4,0.5,0.6,1,0.7,1.5c0,0.9-0.5,1.3-1.2,1.8
		c-0.8,0.7-2.2,2.1-2.2,3.2c0,0.4,0.4,0.8,0.9,0.8c1.2,0,3-1.8,3.9-2.5l0.2,1c-1.1,1.2-4.3,4.3-5.9,4.3c-1.2,0-1.9-1.1-1.9-2.2
		c0-1.9,1.5-3.4,2.6-4.7l-0.1-0.1L232.5,51.5z"/>
	<path class="st1" d="M248.2,53.8c-1.3,1.5-3.7,4.1-5.9,4.1c-1.7,0-2.4-1.9-2.4-3.3c0-3.4,3.5-6.7,5.2-6.7c0.5,0,1.2,0.2,1.2,0.8
		c0,1.4-2.8,3.9-3.9,4.7c-0.2,1.1,0.2,1.8,1.5,1.8c1.5,0,2.9-1.5,4.1-2.3L248.2,53.8z M245.5,46c0-1.1,1.3-2.2,2.4-2.2
		c0.5,0,0.9,0.4,0.9,0.9c0,1.1-1,2.5-2.2,2.5C245.9,47.3,245.5,46.8,245.5,46z"/>
	<path class="st1" d="M261.2,52l0.2,1.2c-1.5,1.3-4.4,4.8-6.4,4.8c-1.1,0-1.6-0.9-1.6-1.8c0-1.7,1.5-3.5,2.4-4.8l-0.1-0.1
		c-1.6,1.2-3.1,2.7-4.3,4.3c-0.4,0.5-1.5,1.9-2.2,1.9c-1.2,0-1.5-1.8-1.6-2.7c-0.1-1.9,1.7-4.8,3.3-6.1c0.4-0.3,0.6-0.3,1.1-0.3
		c1.7,0.1,1.5,0.4,1.5,0.6c0,1.1-3.5,3.9-3.5,4.6c0,0.2,0.1,0.3,0.3,0.3s0.4-0.3,0.6-0.4c2.2-2.9,7.4-6.3,8.2-6.3
		c0.1,0,0.3,0.1,0.4,0.5c0.2,0.4,0.3,0.9,0.4,1.5c0,1.1-3.4,3.2-3.4,5.2c0,0.3,0.2,0.5,0.5,0.5c0.7,0,1.9-1,2.4-1.4L261.2,52z"/>
	<path class="st1" d="M268.4,53.5L268.4,53.5c-1.1,1.1-4,3.6-5.5,3.6c-1.6,0-2.1-2-2.1-3.3c0-3.7,6.1-6.6,8.3-6.8
		c0.4,0,1.5,0.1,1.5,0.7c0,0.5-0.6,0.9-0.9,1.1l-3.2,1.7c-1.8,1-3.8,1.7-3.6,3.8c0,0.2,0.2,0.3,0.4,0.3c0.8,0.1,2.5-0.6,3.6-1.7
		l3-3.3c0.3-0.3,0.6-0.8,1.1-0.8c0.6,0,1.1,1,1.1,1.4s-0.4,1.1-0.6,1.4l-2.1,3.9l0.1,0.1l4.3-3.1l0.1,1.2l-5.9,4.4
		c-2.9,4.7-5.4,6.5-6.5,6.5c-0.4,0-0.6-0.3-0.6-0.7c0-2,4.3-5.5,5.8-6.7L268.4,53.5z"/>
</g>
<g class="st0">
	<path class="st2" d="M148.9,74.9c-1.6,0.5-3,1.5-3.4,1.6c-0.1,0-0.3-0.1-0.3-0.2c0-0.3,1.2-1.3,1.7-1.7c-5.7,0-9,2.3-8.8,3.1
		c0.1,0.4-0.1,1.1,7.6,0.9c0.2,0,1.6,0,1.6,0.5c0,0.4-0.6,1.3-0.9,1.6c-0.4,0.3-1.8,0.6-2.3,0.6c-6.1,1-8.7,3.7-8.7,4.6
		c0,0.4,0.7,0.7,2,0.8c1.3,0.1,3.2-0.1,5.7-0.8c1.7-0.5,3.2-1.7,4.8-2.5c0.1,1.7,0,2.7-1.4,3.8c-0.8,0.7-3.9,2.8-8.9,2.7
		c-1.1,0-2.2-0.2-3.3-0.5c-1-0.3-1.7-1.8-1.7-2.7c0-1.6,2.1-4.7,9.2-6.4v-0.2c-5.4-0.2-6.6-1.4-6.6-2.8c0-2.4,3.5-6,11.4-6
		c0.8,0,3-0.1,3.4,0.7v1C150.3,74.4,150.3,74.5,148.9,74.9z"/>
	<path class="st2" d="M161.4,79.6c2.4,0.6,3.6,1.8,3.6,3c0,4.8-8.4,5.5-11.8,5.5c-0.9,0-3.9,0-3.9-1.4c0-0.5,0.8-1.8,1.2-2.1
		c0.3-0.2,1.7-0.7,2.1-0.7c0.1,0,0.2,0,0.2,0.2s-0.2,0.4-0.4,0.5c-0.1,0.1-0.3,0.2-0.4,0.4l0,0c8.6,0.3,10.9-2.2,10.9-2.5
		c0-1.2-6.6-2.2-7.8-2.4c-1.2-0.2-2.4-0.6-2.4-2c0-0.8,0.4-2.5,0.8-3.2c0.7-1.2,5.1-3.5,10.3-3.5c1,0,2,0.1,3,0.3
		c0.6,0.1,0.6,0.3,0.6,0.8c0,1.8-0.6,2.2-2,2.7c-1,0.4-1.2,0.5-2.2,1.2c-0.2,0.1-0.4,0.2-0.6,0.2c-0.2,0-0.4-0.1-0.4-0.4
		c0,0,0.5-0.8,1.8-1.7l0,0c-6.2,0.2-8.9,2.4-8.9,3C155,77.9,154.7,78,161.4,79.6z"/>
	<path class="st2" d="M176.3,78.6c0.2-0.2,1-0.9,1.2-0.9s0.4,0.2,0.2,0.6l0,0c2.3-2,3.8-4.2,3.8-5c0-0.4-0.3-0.6-0.6-0.5
		c-0.4,0.1-3.2,0.2-8.5,6.5c-1.7,2-2.9,4.6-2.9,6.5c0,1.7,0.8,2.7,2.5,2.7c3,0,8.3-3.9,10.6-6c0.1,1.2-0.3,1.6-1.2,2.4
		c-4.7,4.5-8.7,6-10.9,6c-2.7,0-4.6-1.7-4.6-4.4c0-3.5,3-7.3,5.4-9.6c2-1.9,7.1-5.8,9.9-5.8c1.4,0,2.4,0.8,2.4,2.3
		c0.2,3.2-6,9.4-9,9.8c-0.7,0.1-1.3-0.4-1.3-1.2c0-0.7,0.6-1.4,1.2-1.9L176.3,78.6z"/>
	<path class="st2" d="M196.4,85.2c0,0.2,0.2,0.4,0.4,0.4c0.4,0,0.7-0.3,2.1-1.3l0.4,0.6c-1.2,1.2-3.2,3.1-4.9,3.1
		c-0.9,0-1.2-0.7-1.2-1.4c0-0.2-0.4-0.2,1.8-4.1l-5.2,0.2l-4.9,4.9c-0.6,0.6-1.5,1.6-2.4,1.6c-0.4,0-0.8-0.1-0.8-0.5
		c0-0.8,1.8-3.1,4.1-3.9l1.9-2.1c-1.5,0-2.3,0.1-2.3-0.5c0-0.5,1.8-2.5,3-2.9c0.9-0.3,2.2-0.5,2.2-0.2c0,0.4-1.8,0.2-1.8,0.6
		c0,0.2,0.2,0.2,0.3,0.2c0.4,0,1.4-0.1,1.5-0.1l5.4-4.5c2.4-1.9,5.2-4.1,6.3-4.1c0.5,0,0.8,0.6,0.8,1c0,0.5-0.5,1.3-0.7,1.8l-3,5.2
		c1.8,0,0.7-0.2,2.2,0.1c-0.7,0.8-1.3,1.8-1.8,2.7l-1.9,0.1L196.4,85.2z M200,74L200,74l-7,5.7l0,0l3.7-0.3L200,74z"/>
	<path class="st2" d="M206.2,85.5c0.2,0,0.5,0.2,0.5,0.4c0,0.3-0.6,1.1-1.2,1.9c-0.3,0.4-0.8,1.1-1.4,1.1c-0.6,0-0.8-0.3-0.8-0.9
		c0-1.1,1.7-3.7,2.3-4.7c-0.6-0.4-1.1-0.8-1.1-1.5c0-1.4,2.8-2,3.8-2.4l3.8-5c-4.2,0.1-7.5,1.6-8.3,1.6c-0.1,0-0.4,0-0.4-0.2
		c0-0.6,1.4-2.4,1.8-3c0.4-0.6,1.2-0.8,1.8-1c2.1-0.6,4.3-0.8,6.5-0.8c6,0,7.6,1.9,7.6,4.9c0,5.1-6.2,8.7-13.9,7.8L206.2,85.5z
		 M210.4,79.2c0.9,0,1.9-0.3,1.9,0.1c0,0.5-2,0.6-2.4,0.9l-0.5,0.8c0.9,0.2,1.7,0.3,2.5,0.2c4.7-0.3,7.8-3.7,7.5-5.2
		s-4.8-1.8-5.9-1.8c0,0.6-0.2,1-0.5,1.5L210.4,79.2z"/>
	<path class="st2" d="M236.5,74.9c-1.6,0.5-3,1.5-3.4,1.6c-0.1,0-0.3-0.1-0.3-0.2c0-0.3,1.2-1.3,1.7-1.7c-5.7,0-9,2.3-8.8,3.1
		c0.1,0.4-0.1,1.1,7.6,0.9c0.2,0,1.6,0,1.6,0.5c0,0.4-0.6,1.3-0.9,1.6c-0.4,0.3-1.8,0.6-2.3,0.6c-6.1,1-8.7,3.7-8.7,4.6
		c0,0.4,0.7,0.7,2,0.8c1.3,0.1,3.2-0.1,5.7-0.8c1.7-0.5,3.2-1.7,4.8-2.5c0.1,1.7,0,2.7-1.4,3.8c-0.8,0.7-3.9,2.8-8.9,2.7
		c-1.1,0-2.2-0.2-3.3-0.5c-1-0.3-1.7-1.8-1.7-2.7c0-1.6,2.1-4.7,9.2-6.4v-0.2c-5.4-0.2-6.6-1.4-6.6-2.8c0-2.4,3.5-6,11.4-6
		c0.8,0,3-0.1,3.4,0.7v1C237.9,74.4,237.9,74.5,236.5,74.9z"/>
	<path class="st2" d="M249,79.6c2.4,0.6,3.6,1.8,3.6,3c0,4.8-8.4,5.5-11.8,5.5c-0.9,0-3.9,0-3.9-1.4c0-0.5,0.8-1.8,1.2-2.1
		c0.3-0.2,1.7-0.7,2.1-0.7c0.1,0,0.2,0,0.2,0.2s-0.2,0.4-0.4,0.5c-0.1,0.1-0.3,0.2-0.4,0.4l0,0c8.6,0.3,10.9-2.2,10.9-2.5
		c0-1.2-6.6-2.2-7.8-2.4c-1.2-0.2-2.4-0.6-2.4-2c0-0.8,0.4-2.5,0.8-3.2c0.7-1.2,5.1-3.5,10.3-3.5c1,0,2,0.1,3,0.3
		c0.6,0.1,0.6,0.3,0.6,0.8c0,1.8-0.6,2.2-2,2.7c-1,0.4-1.2,0.5-2.2,1.2c-0.2,0.1-0.4,0.2-0.6,0.2c-0.2,0-0.4-0.1-0.4-0.4
		c0,0,0.5-0.8,1.8-1.7l0,0c-6.2,0.2-8.9,2.4-8.9,3C242.6,77.9,242.3,78,249,79.6z"/>
</g>
</svg>
